# xmcd CD database file
#
# Track frame offsets:
#	150
#	13640
#	26668
#	42095
#	63743
#	79745
#	96213
#	110043
#	119800
#	136238
#	160143
#	180238
#	196193
#	216095
#	231153
#	253355
#	273645
#	296148
#	309063
#	328255
#	338243
#
# Disc length: 4694 seconds
#
# Revision: 1
# Processed by: cddbd v1.4PL0 Copyright (c) Steve Scherf et al.
# Submitted via: CDValet v3.40 - Copyright (c) 1996 - 1998 Greg Leichner
#
DISCID=3b125415
DTITLE=Van Ronk, Dave - Two Sides Of Dave Van Ronk
DYEAR=1900
DGENRE=
TTITLE0=Cake Walkin' Babies From Home
TTITLE1=Ace In The Hole
TTITLE2=St. Louis Tickle
TTITLE3=Death Letter Blues
TTITLE4=All Over You
TTITLE5=Who Back Buck
TTITLE6=Sister Kate
TTITLE7=Kansas City Blues
TTITLE8=Green, Green Rocky Road
TTITLE9=See See Rider
TTITLE10=Rocks And Gravel
TTITLE11=Hesitation Blues
TTITLE12=God Bless The Child
TTITLE13=Sunday Street
TTITLE14=Sportin' Life
TTITLE15=Cocaine
TTITLE16=St. James Infirmary
TTITLE17=You've Been A Good Ole Wagon
TTITLE18=Spike Driver Blues
TTITLE19=Gaslight Rag
TTITLE20=Candy Man
EXTD=
EXTT0=
EXTT1=
EXTT2=
EXTT3=
EXTT4=
EXTT5=
EXTT6=
EXTT7=
EXTT8=
EXTT9=
EXTT10=
EXTT11=
EXTT12=
EXTT13=
EXTT14=
EXTT15=
EXTT16=
EXTT17=
EXTT18=
EXTT19=
EXTT20=
PLAYORDER=
